<svg

    height="20"
    width="20"
    viewBox="0
    0
    24
    24"
    id="icon-product-selector-buy-now"
    xmlns="http://www.w3.org/2000/svg">
    <path
        fill="white"
        d="M7.09
        17a1.5
        1.5
        0
        110
        3
        1.5
        1.5
        0
        010-3zm11
        0a1.5
        1.5
        0
        110
        3
        1.5
        1.5
        0
        010-3zM12
        4a1.4
        1.4
        0
        011.317
        1.88l-.446
        1.223A4
        4
        0
        0113.772
        7h8.818l-1.865
        3.869A2
        2
        0
        0118.923
        12H11a.545.545
        0
        00-.238.365l-.008.09c0
        .271.197.496.456.538L11.3
        13l8.402.001C19.067
        14.187
        17.824
        15
        16.59
        15H9.443a1
        1
        0
        01-.936-1.351l.12-.325a1.4
        1.4
        0
        01.056-.204L12
        4z"/>
    <path
        d="M7.727
        13l-.488
        1.342A1
        1
        0
        016.3
        15H2l.249-.684A2
        2
        0
        014.129
        13h3.598zm1.091-3l-.488
        1.342a1
        1
        0
        01-.94.658h-5.3l.25-.684A2
        2
        0
        014.22
        10h4.598zM9.91
        7l-.488
        1.342a1
        1
        0
        01-.94.658h-3.3l.25-.684A2
        2
        0
        017.31
        7h2.6z"
        fill="white"/>
</svg>