<svg width="18" height="18" viewBox="0 0 18 18" fill="none" xmlns="http://www.w3.org/2000/svg">
    <path fill-rule="evenodd" clip-rule="evenodd" d="M3.247 3.75c-.555 0-1.005.45-1.005 1.005v3.487H1.5v1.52h.6v1.488h.367v4.492h1.05V11.25h.34V9.8h.96v1.45h.35v4.492h1.05V11.25h.358V9.8h.96v1.45h.332v4.492h1.05V12.22l-.092-.092a1.963 1.963 0 0 1-.575-1.389V7.963C8.25 6.183 8.433 6 10.213 6h1.848V4.755c0-.555-.45-1.005-1.005-1.005H3.247zm8.37 11.17-1.05-1.05v1.872h1.05v-.822zM3.111 5.21a.375.375 0 1 1 .75 0v2.38a.375.375 0 0 1-.75 0V5.21z" fill="#03234B"/>
    <path fill-rule="evenodd" clip-rule="evenodd" d="M12.968 6.75H9.757A.757.757 0 0 0 9 7.507v3.211c0 .201.08.393.222.536l3.524 3.524a.757.757 0 0 0 1.071 0l3.211-3.211a.757.757 0 0 0 0-1.07l-3.524-3.525a.757.757 0 0 0-.536-.222zm-1.423 3.498a.952.952 0 1 0 0-1.904.952.952 0 0 0 0 1.904z" fill="#E6007E"/>
</svg>
